<svg xmlns="http://www.w3.org/2000/svg" width="24" height="24" viewBox="0 0 24 24"><path fill="#1A1C1E" d="M7.15,14.6 C6.93333333,14.3833333 6.821,14.129 6.813,13.837 C6.80433333,13.5456667 6.90833333,13.2916667 7.125,13.075 L11.675,8.525 L1.075,8.525 C0.775,8.525 0.521,8.42066667 0.313,8.212 C0.104333333,8.004 0,7.75 0,7.45 C0,7.15 0.104333333,6.89566667 0.313,6.687 C0.521,6.479 0.775,6.375 1.075,6.375 L11.675,6.375 L7.125,1.825 C6.90833333,1.60833333 6.80433333,1.35433333 6.813,1.063 C6.821,0.771 6.93333333,0.516666667 7.15,0.3 C7.36666667,0.1 7.621,0 7.913,0 C8.20433333,0 8.45,0.1 8.65,0.3 L15.075,6.7 C15.175,6.8 15.25,6.91666667 15.3,7.05 C15.35,7.18333333 15.375,7.31666667 15.375,7.45 C15.375,7.58333333 15.35,7.71233333 15.3,7.837 C15.25,7.96233333 15.175,8.08333333 15.075,8.2 L8.65,14.6 C8.45,14.8166667 8.20433333,14.9206667 7.913,14.912 C7.621,14.904 7.36666667,14.8 7.15,14.6 Z" transform="translate(4 5)"/></svg>