<svg xmlns="http://www.w3.org/2000/svg" width="24" height="24" viewBox="0 0 24 24"><path fill="#1A1C1E" d="M9.975,14.925 C10.2583333,14.925 10.5,14.825 10.7,14.625 C10.9,14.425 11,14.175 11,13.875 L11,9.975 C11,9.69166667 10.9,9.454 10.7,9.262 C10.5,9.07066667 10.2583333,8.975 9.975,8.975 C9.675,8.975 9.425,9.075 9.225,9.275 C9.025,9.475 8.925,9.71666667 8.925,10 L8.925,13.9 C8.925,14.1833333 9.025,14.425 9.225,14.625 C9.425,14.825 9.675,14.925 9.975,14.925 Z M9.95,7.175 C10.25,7.175 10.5043333,7.07066667 10.713,6.862 C10.921,6.654 11.025,6.4 11.025,6.1 C11.025,5.8 10.921,5.54566667 10.713,5.337 C10.5043333,5.129 10.25,5.025 9.95,5.025 C9.65,5.025 9.396,5.129 9.188,5.337 C8.97933333,5.54566667 8.875,5.8 8.875,6.1 C8.875,6.4 8.97933333,6.654 9.188,6.862 C9.396,7.07066667 9.65,7.175 9.95,7.175 Z M9.95,19.9 C8.56666667,19.9 7.271,19.6416667 6.063,19.125 C4.85433333,18.6083333 3.8,17.9 2.9,17 C2,16.1 1.29166667,15.0456667 0.775,13.837 C0.258333333,12.629 -8.8817842e-16,11.3333333 -8.8817842e-16,9.95 C-8.8817842e-16,8.56666667 0.258333333,7.271 0.775,6.063 C1.29166667,4.85433333 2,3.8 2.9,2.9 C3.8,2 4.85433333,1.29166667 6.063,0.775 C7.271,0.258333333 8.56666667,-8.8817842e-16 9.95,-8.8817842e-16 C11.3333333,-8.8817842e-16 12.629,0.258333333 13.837,0.775 C15.0456667,1.29166667 16.1,2 17,2.9 C17.9,3.8 18.6083333,4.85433333 19.125,6.063 C19.6416667,7.271 19.9,8.56666667 19.9,9.95 C19.9,11.3333333 19.6416667,12.629 19.125,13.837 C18.6083333,15.0456667 17.9,16.1 17,17 C16.1,17.9 15.0456667,18.6083333 13.837,19.125 C12.629,19.6416667 11.3333333,19.9 9.95,19.9 Z M9.95,17.75 C12.1,17.75 13.9376667,16.9916667 15.463,15.475 C16.9876667,13.9583333 17.75,12.1166667 17.75,9.95 C17.75,7.78333333 16.9876667,5.94166667 15.463,4.425 C13.9376667,2.90833333 12.1,2.15 9.95,2.15 C7.8,2.15 5.96266667,2.90833333 4.438,4.425 C2.91266667,5.94166667 2.15,7.78333333 2.15,9.95 C2.15,12.1166667 2.91266667,13.9583333 4.438,15.475 C5.96266667,16.9916667 7.8,17.75 9.95,17.75 Z" transform="translate(2 2)"/></svg>