<svg xmlns="http://www.w3.org/2000/svg" width="24" height="24" viewBox="0 0 24 24"><path fill="#1A1C1E" d="M5.6125,6.68846154 C5.47916667,6.68846154 5.34583333,6.66346154 5.2125,6.61346154 C5.07916667,6.56346154 4.9625,6.48846154 4.8625,6.38846154 L0.3125,1.81346154 C0.0958333333,1.59679487 -0.00816666667,1.34679487 0.0005,1.06346154 C0.0085,0.780128205 0.120833333,0.530128205 0.3375,0.313461538 C0.5375,0.113461538 0.7875,0.0134615385 1.0875,0.0134615385 C1.3875,0.0134615385 1.6375,0.113461538 1.8375,0.313461538 L5.6125,4.08846154 L9.4125,0.288461538 C9.6125,0.0884615385 9.8585,-0.00753846154 10.1505,0.000461538462 C10.4418333,0.00912820513 10.6875,0.113461538 10.8875,0.313461538 C11.1041667,0.530128205 11.2125,0.784128205 11.2125,1.07546154 C11.2125,1.36746154 11.1041667,1.62179487 10.8875,1.83846154 L6.3625,6.38846154 C6.2625,6.48846154 6.14583333,6.56346154 6.0125,6.61346154 C5.87916667,6.66346154 5.74583333,6.68846154 5.6125,6.68846154 Z" transform="translate(6 9)"/></svg>