<svg xmlns="http://www.w3.org/2000/svg" width="24" height="24" viewBox="0 0 24 24"><path fill="#1A1C1E" d="M5.26346154,11.2 C5.13012821,11.2 4.99679487,11.175 4.86346154,11.125 C4.73012821,11.075 4.61346154,11 4.51346154,10.9 L0.288461538,6.675 C0.0884615385,6.475 -0.00753846154,6.22066667 0.000461538462,5.912 C0.00912820513,5.604 0.113461538,5.35 0.313461538,5.15 C0.513461538,4.95 0.767794872,4.85 1.07646154,4.85 C1.38446154,4.85 1.63846154,4.95 1.83846154,5.15 L5.26346154,8.575 L13.5384615,0.3 C13.7384615,0.1 13.9927949,0 14.3014615,0 C14.6094615,0 14.8634615,0.1 15.0634615,0.3 C15.2634615,0.5 15.3634615,0.758333333 15.3634615,1.075 C15.3634615,1.39166667 15.2634615,1.65 15.0634615,1.85 L6.01346154,10.9 C5.91346154,11 5.79679487,11.075 5.66346154,11.125 C5.53012821,11.175 5.39679487,11.2 5.26346154,11.2 Z" transform="translate(4 6)"/></svg>