<svg xmlns="http://www.w3.org/2000/svg" width="24" height="24" viewBox="0 0 24 24"><path fill="#0047BB" d="M6.7,14.6134273 L0.3,8.2134273 C0.2,8.1134273 0.125,7.99676063 0.075,7.8634273 C0.025,7.73009397 0,7.59676063 0,7.4634273 C0,7.33009397 0.025,7.19676063 0.075,7.0634273 C0.125,6.93009397 0.2,6.8134273 0.3,6.7134273 L6.725,0.3134273 C6.925,0.1134273 7.17066667,0.00909396637 7.462,0.000427299703 C7.754,-0.0075727003 8.00833333,0.096760633 8.225,0.3134273 C8.44166667,0.530093966 8.55433333,0.7844273 8.563,1.0764273 C8.571,1.36776063 8.45833333,1.62176063 8.225,1.8384273 L3.7,6.3884273 L14.3,6.3884273 C14.5833333,6.3884273 14.8333333,6.4924273 15.05,6.7004273 C15.2666667,6.90909397 15.375,7.1634273 15.375,7.4634273 C15.375,7.7634273 15.2666667,8.0174273 15.05,8.2254273 C14.8333333,8.43409397 14.5833333,8.5384273 14.3,8.5384273 L3.7,8.5384273 L8.25,13.0884273 C8.45,13.2884273 8.55433333,13.5384273 8.563,13.8384273 C8.571,14.1384273 8.45833333,14.3967606 8.225,14.6134273 C8.025,14.830094 7.775,14.9384273 7.475,14.9384273 C7.175,14.9384273 6.91666667,14.830094 6.7,14.6134273 Z" transform="translate(4 5)"/></svg>