<svg xmlns="http://www.w3.org/2000/svg" width="24" height="24" viewBox="0 0 24 24"><path d="M5.075,15.775 L10.9,15.775 C11.1666667,15.775 11.396,15.6793333 11.588,15.488 C11.7793333,15.296 11.875,15.0583333 11.875,14.775 C11.875,14.5083333 11.7793333,14.279 11.588,14.087 C11.396,13.8956667 11.1666667,13.8 10.9,13.8 L5.075,13.8 C4.79166667,13.8 4.55833333,13.8956667 4.375,14.087 C4.19166667,14.279 4.1,14.5083333 4.1,14.775 C4.1,15.0583333 4.196,15.296 4.388,15.488 C4.57933333,15.6793333 4.80833333,15.775 5.075,15.775 Z M5.075,11.825 L10.9,11.825 C11.1666667,11.825 11.396,11.729 11.588,11.537 C11.7793333,11.3456667 11.875,11.1083333 11.875,10.825 C11.875,10.5583333 11.7793333,10.3293333 11.588,10.138 C11.396,9.946 11.1666667,9.85 10.9,9.85 L5.075,9.85 C4.79166667,9.85 4.55833333,9.946 4.375,10.138 C4.19166667,10.3293333 4.1,10.5583333 4.1,10.825 C4.1,11.1083333 4.196,11.3456667 4.388,11.537 C4.57933333,11.729 4.80833333,11.825 5.075,11.825 Z M2.15,19.9 C1.55,19.9 1.04166667,19.6916667 0.625,19.275 C0.208333333,18.8583333 8.8817842e-16,18.35 8.8817842e-16,17.75 L8.8817842e-16,2.15 C8.8817842e-16,1.55 0.208333333,1.04166667 0.625,0.625 C1.04166667,0.208333333 1.55,-4.4408921e-16 2.15,-4.4408921e-16 L9.175,-4.4408921e-16 C9.45833333,-4.4408921e-16 9.729,0.054 9.987,0.162 C10.2456667,0.270666667 10.475,0.425 10.675,0.625 L15.325,5.25 C15.525,5.45 15.679,5.679 15.787,5.937 C15.8956667,6.19566667 15.95,6.475 15.95,6.775 L15.95,17.75 C15.95,18.35 15.7416667,18.8583333 15.325,19.275 C14.9083333,19.6916667 14.4,19.9 13.8,19.9 L2.15,19.9 Z M8.975,5.9 L8.975,2.15 L2.15,2.15 L2.15,17.75 L13.8,17.75 L13.8,6.975 L10.05,6.975 C9.75,6.975 9.49566667,6.87066667 9.287,6.662 C9.079,6.454 8.975,6.2 8.975,5.9 Z M2.15,2.15 L2.15,6.975 L2.15,2.15 L2.15,17.75 L2.15,2.15 Z" transform="translate(4 2)"/></svg>